{"title":"Thunderbirds Are Go S01E21 Comet Chasers 1080P WEB-DL AAC2 0 H 2","uid":13692974,"size":885212174,"categoryP":"video","categoryS":"hd___tv_shows","magnet":"?xt=urn:btih:5ff38fd6a1b56bfcedc1202e91100beca3301f23&amp;dn=Thunderbirds+Are+Go+S01E21+Comet+Chasers+1080P+WEB-DL+AAC2+0+H+2&amp;tr=udp%3A%2F%2Ftracker.leechers-paradise.org%3A6969&amp;tr=udp%3A%2F%2Fzer0day.ch%3A1337&amp;tr=udp%3A%2F%2Fopen.demonii.com%3A1337&amp;tr=udp%3A%2F%2Ftracker.coppersurfer.tk%3A6969&amp;tr=udp%3A%2F%2Fexodus.desync.com%3A6969","seeders":0,"leechers":0,"uploader":"jmanwf","files":1,"time":1456634965,"description":"Description\r\nIt is 2060 and once again Halley's Comet is passing close to Earth. A businessman and his personal assistant fly up to chase the comet but end up sending out a distress call. Alan and Scott have to rescue them in Thunderbird 3.\r\n\r\n\r\n\r\nVideo\r\nID : 2\r\nFormat : AVC\r\nFormat/Info : Advanced Video Codec\r\nFormat profile :   \r\nFormat settings, CABAC : Yes\r\nFormat settings, ReFrames : 4 frames\r\nCodec ID : avc1\r\nCodec ID/Info : Advanced Video Coding\r\nDuration : 22mn 6s\r\nBit rate : 5 210 Kbps\r\nWidth : 1 920 pixels\r\nHeight : 1 080 pixels\r\nDisplay aspect ratio : 16:9\r\nFrame rate mode : Constant\r\nFrame rate : 25.000 fps\r\nColor space : YUV\r\nChroma subsampling : 4:2:0\r\nBit depth : 8 bits\r\nScan type : Progressive\r\nBits/(Pixel*Frame) : 0.101\r\nStream size : 824 MiB (98%)\r\nLanguage : English\r\nEncoded date : UTC 2016-02-27 12:29:19\r\nTagged date : UTC 2016-02-27 12:32:11\r\nColor range : Limited\r\nColor primaries : BT.709\r\nTransfer characteristics : BT.709\r\nMatrix coefficients : BT.709\r\n\r\nAudio\r\nID : 1\r\nFormat : AAC\r\nFormat/Info : Advanced Audio Codec\r\nFormat profile : LC\r\nCodec ID : 40\r\nDuration : 22mn 6s\r\nBit rate mode : Variable\r\nBit rate : 126 Kbps\r\nMaximum bit rate : 228 Kbps\r\nChannel(s) : 2 channels\r\nChannel positions : Front: L R\r\nSampling rate : 48.0 KHz\r\nCompression mode : Lossy\r\nStream size : 19.8 MiB (2%)\r\nLanguage : English\r\nEncoded date : UTC 2016-02-27 12:29:18\r\nTagged date : UTC 2016-02-27 12:32:11","torrent":{"xt":"urn:btih:5ff38fd6a1b56bfcedc1202e91100beca3301f23","amp;dn":"Thunderbirds+Are+Go+S01E21+Comet+Chasers+1080P+WEB-DL+AAC2+0+H+2","amp;tr":["udp%3A%2F%2Ftracker.leechers-paradise.org%3A6969","udp%3A%2F%2Fzer0day.ch%3A1337","udp%3A%2F%2Fopen.demonii.com%3A1337","udp%3A%2F%2Ftracker.coppersurfer.tk%3A6969","udp%3A%2F%2Fexodus.desync.com%3A6969"],"infoHash":"5ff38fd6a1b56bfcedc1202e91100beca3301f23","infoHashBuffer":{"type":"Buffer","data":[95,243,143,214,161,181,107,252,237,193,32,46,145,16,11,236,163,48,31,35]},"announce":[],"urlList":[]}}